/vscmnt/brussel_pixiu_data/_data_brussel/112/vsc11236/PredSimResults/SUBJ07opt3D/weighted-LRposFixed/expIG/worker_05.mot
version=1
nRows=5
nColumns=50
inDegrees=yes
endheader
                time	         pelvis_tilt	         pelvis_list	     pelvis_rotation	           pelvis_tx	           pelvis_ty	           pelvis_tz	       hip_flexion_r	     hip_adduction_r	      hip_rotation_r	        knee_angle_r	       ankle_angle_r	         mtp_angle_r	       hip_flexion_l	     hip_adduction_l	      hip_rotation_l	        knee_angle_l	       ankle_angle_l	         mtp_angle_l	    lumbar_extension	      lumbar_bending	     lumbar_rotation	 ercspn_r/activation	 intobl_r/activation	 extobl_r/activation	    abd_r/activation	    add_r/activation	hamstrings_r/activation	bifemsh_r/activation	glut_max_r/activation	iliopsoas_r/activation	rect_fem_r/activation	  vasti_r/activation	gastroc_r/activation	 soleus_r/activation	tib_ant_r/activation	 ercspn_l/activation	 intobl_l/activation	 extobl_l/activation	    abd_l/activation	    add_l/activation	hamstrings_l/activation	bifemsh_l/activation	glut_max_l/activation	iliopsoas_l/activation	rect_fem_l/activation	  vasti_l/activation	gastroc_l/activation	 soleus_l/activation	tib_ant_l/activation	
          0.00000000	         -3.58310293	          0.00716574	          9.48428131	          0.00000000	          0.84997704	         -0.01551460	         30.05710768	         -2.82827578	         -5.89564797	         -8.80792328	          2.36791196	          0.26769959	        -14.00561915	          0.29825465	          5.10009747	         -8.81678958	          9.42767673	         27.62708031	        -11.64719121	         -1.76215585	         -1.43522050	          0.12330842	          0.12675273	          0.01000001	          0.01307638	          0.17757238	          0.07550204	          0.09531255	          0.09769222	          0.04382589	          0.01000011	          0.01000003	          0.01000000	          0.00999999	          0.41463571	          0.10147313	          0.01000000	          0.01000000	          0.03609178	          0.05142518	          0.01641558	          0.17439362	          0.02019630	          0.40078635	          0.01000018	          0.01000002	          0.18361960	          0.33623082	          0.01714631	
          0.01152635	         -3.58439285	          0.08517602	          9.49574496	          0.01597109	          0.84820164	         -0.01491589	         30.05414286	         -2.65061729	         -5.61677067	        -10.68492136	          2.05734317	          0.24518339	        -14.57371554	          0.22491112	          4.77690470	         -9.74856856	          8.61230692	         29.22031704	        -11.46597818	         -1.40561269	         -1.65138040	          0.10562133	          0.12080068	          0.01000000	          0.01096915	          0.18256439	          0.06540448	          0.07995344	          0.16002327	          0.03676342	          0.01000002	          0.01000000	          0.01421116	          0.01192105	          0.44204697	          0.12406618	          0.00999999	          0.01000000	          0.03027565	          0.08788317	          0.01377051	          0.15527856	          0.01694170	          0.43367198	          0.01000005	          0.01000000	          0.15402961	          0.31921649	          0.01438321	
          0.02305271	         -3.58007103	          0.17112469	          9.45664783	          0.03214977	          0.84664470	         -0.01425512	         29.89044077	         -2.50450786	         -5.26357051	        -12.35119873	          1.71643811	          0.23830835	        -14.96198835	          0.18233216	          4.41164499	        -11.03868619	          7.68217486	         30.81473811	        -11.27658575	         -1.05151438	         -1.86070948	          0.12479747	          0.10133386	          0.01000000	          0.06619652	          0.18348427	          0.06003429	          0.09174239	          0.17578395	          0.03083906	          0.01000000	          0.00999999	          0.01192106	          0.00999999	          0.51046048	          0.14244219	          0.00999999	          0.01000000	          0.02539678	          0.08117323	          0.01155173	          0.13499635	          0.01421158	          0.37973278	          0.01000004	          0.01000000	          0.12920799	          0.29708400	          0.01206538	
          0.03457906	         -3.57176975	          0.27227671	          9.36594413	          0.04834727	          0.84543610	         -0.01349773	         29.64065833	         -2.36926946	         -4.96454532	        -13.86279655	          1.35783987	          0.21948754	        -15.11934179	          0.17725426	          4.00701799	        -12.73895736	          6.58609715	         32.38710444	        -11.09819184	         -0.71235086	         -2.05774055	          0.14073853	          0.08500408	          0.01000000	          0.11986892	          0.18760527	          0.05253922	          0.07695827	          0.19989435	          0.02586939	          0.01000000	          0.00999999	          0.01000001	          0.00999999	          0.53126212	          0.17590970	          0.00999999	          0.01000000	          0.02130413	          0.07742497	          0.01166809	          0.11324237	          0.01192141	          0.31853950	          0.01000006	          0.01000000	          0.10838634	          0.27227931	          0.01012107	
          0.04610541	         -3.56022970	          0.38007494	          9.22836710	          0.06436173	          0.84472592	         -0.01265723	         29.40504661	         -2.24309188	         -4.72736136	        -15.42917049	          1.28066295	          0.19772256	        -14.99766442	          0.20120953	          3.56769987	        -14.89149340	          5.29373980	         33.84769014	        -10.94547325	         -0.37784743	         -2.23833047	          0.14572685	          0.07130581	          0.01000000	          0.16240796	          0.20074842	          0.04667221	          0.06455658	          0.21899522	          0.02170059	          0.01000001	          0.02590206	          0.01000000	          0.00999999	          0.52562810	          0.21534996	          0.00999999	          0.01000000	          0.01787100	          0.09155023	          0.01255379	          0.10161807	          0.01000029	          0.26720739	          0.01000002	          0.00999999	          0.09092006	          0.23185200	          0.00999999	
